<svg xmlns="http://www.w3.org/2000/svg" xmlns:xlink="http://www.w3.org/1999/xlink" width="500" zoomAndPan="magnify" viewBox="0 0 375 374.999991" height="500" preserveAspectRatio="xMidYMid meet" version="1.0"><defs><g/><clipPath id="3d8f797603"><path d="M 78.277344 172.078125 L 298.222656 172.078125 L 298.222656 197.695312 L 78.277344 197.695312 Z M 78.277344 172.078125 " clip-rule="nonzero"/></clipPath></defs><path stroke-linecap="butt" transform="matrix(0.00181868, -0.749657, 0.749998, 0.00181951, 187.12366, 259.034016)" fill="none" stroke-linejoin="miter" d="M -0.000303406 0.501789 L 206.099276 0.502016 " stroke="#151515" stroke-width="1" stroke-opacity="1" stroke-miterlimit="4"/><g fill="#151515" fill-opacity="1"><g transform="translate(94.84551, 228.61954)"><g><path d="M 2.761719 -91.1875 C 10.683594 -91.1875 11.238281 -84.648438 11.238281 -66.5 L 11.238281 -25.605469 C 11.238281 -7.460938 10.683594 -0.921875 2.761719 -0.921875 L 2.761719 0 L 27.539062 0 L 27.539062 -0.921875 C 19.617188 -0.921875 19.066406 -7.460938 19.066406 -25.605469 L 19.066406 -40.527344 C 23.027344 -38.777344 32.144531 -36.199219 40.25 -36.199219 C 60.699219 -36.199219 71.75 -50.199219 71.75 -65.210938 C 71.75 -81.605469 60.789062 -93.949219 41.171875 -93.949219 C 30.488281 -93.949219 23.949219 -92.109375 13.816406 -92.109375 L 2.761719 -92.109375 Z M 19.066406 -41.449219 L 19.066406 -89.710938 C 24.683594 -91.738281 29.105469 -92.660156 35.921875 -92.660156 C 53.054688 -92.660156 63.832031 -81.792969 63.832031 -65.121094 C 63.832031 -54.066406 56.921875 -38.039062 38.59375 -38.039062 C 30.578125 -38.039062 23.765625 -39.515625 19.066406 -41.449219 Z M 19.066406 -41.449219 "/></g></g></g><g fill="#151515" fill-opacity="1"><g transform="translate(199.103525, 228.61954)"><g><path d="M 2.761719 0 L 27.539062 0 L 27.539062 -0.921875 C 19.617188 -0.921875 19.066406 -7.460938 19.066406 -25.605469 L 19.066406 -89.710938 C 24.683594 -91.738281 29.105469 -92.660156 35.921875 -92.660156 C 53.054688 -92.660156 63.832031 -83.265625 63.832031 -67.976562 C 63.832031 -56.921875 56.371094 -45.59375 44.855469 -45.59375 C 36.289062 -45.59375 32.054688 -50.84375 26.617188 -50.84375 C 24.960938 -50.84375 23.394531 -49.921875 23.394531 -47.710938 C 23.394531 -41.449219 33.160156 -41.078125 42.09375 -27.632812 C 56.644531 -5.804688 59.226562 0 63.460938 0 L 77.554688 0 L 77.554688 -0.921875 C 67.054688 -0.921875 58.488281 -17.316406 51.210938 -28.644531 C 43.75 -40.25 24.316406 -41.539062 24.316406 -47.527344 C 24.316406 -49.644531 25.882812 -49.921875 26.988281 -49.921875 C 30.855469 -49.921875 36.75 -44.027344 45.410156 -44.027344 C 61.4375 -44.027344 71.75 -55.449219 71.75 -68.066406 C 71.75 -83.082031 60.789062 -93.949219 41.171875 -93.949219 C 30.488281 -93.949219 23.949219 -92.109375 13.816406 -92.109375 L 2.761719 -92.109375 L 2.761719 -91.1875 C 10.683594 -91.1875 11.238281 -84.648438 11.238281 -66.5 L 11.238281 -25.605469 C 11.238281 -7.460938 10.683594 -0.921875 2.761719 -0.921875 Z M 2.761719 0 "/></g></g></g><g clip-path="url(#3d8f797603)"><path fill="#ffffff" d="M 78.277344 172.078125 L 298.222656 172.078125 L 298.222656 197.695312 L 78.277344 197.695312 Z M 78.277344 172.078125 " fill-opacity="1" fill-rule="nonzero"/></g><g fill="#151515" fill-opacity="1"><g transform="translate(54.736978, 189.572433)"><g><path d="M 5.46875 -10.171875 C 6.757812 -10.171875 7.773438 -9.859375 8.515625 -9.234375 C 9.253906 -8.617188 9.625 -7.769531 9.625 -6.6875 C 9.625 -5.601562 9.253906 -4.753906 8.515625 -4.140625 C 7.773438 -3.523438 6.757812 -3.21875 5.46875 -3.21875 L 2.734375 -3.21875 L 2.734375 0 L 1.65625 0 L 1.65625 -10.171875 Z M 5.4375 -4.15625 C 6.445312 -4.15625 7.21875 -4.375 7.75 -4.8125 C 8.28125 -5.257812 8.546875 -5.882812 8.546875 -6.6875 C 8.546875 -7.507812 8.28125 -8.140625 7.75 -8.578125 C 7.21875 -9.015625 6.445312 -9.234375 5.4375 -9.234375 L 2.734375 -9.234375 L 2.734375 -4.15625 Z M 5.4375 -4.15625 "/></g></g></g><g fill="#151515" fill-opacity="1"><g transform="translate(69.796664, 189.572433)"><g><path d="M 1.65625 -10.171875 L 2.734375 -10.171875 L 2.734375 -0.9375 L 8.421875 -0.9375 L 8.421875 0 L 1.65625 0 Z M 1.65625 -10.171875 "/></g></g></g><g fill="#151515" fill-opacity="1"><g transform="translate(82.983341, 189.572433)"><g><path d="M 8.03125 -2.71875 L 2.375 -2.71875 L 1.140625 0 L 0.03125 0 L 4.671875 -10.171875 L 5.734375 -10.171875 L 10.390625 0 L 9.25 0 Z M 7.640625 -3.59375 L 5.203125 -9.046875 L 2.765625 -3.59375 Z M 7.640625 -3.59375 "/></g></g></g><g fill="#151515" fill-opacity="1"><g transform="translate(98.028515, 189.572433)"><g><path d="M 12.21875 -10.171875 L 12.21875 0 L 11.1875 0 L 11.1875 -8.140625 L 7.1875 -1.296875 L 6.6875 -1.296875 L 2.6875 -8.09375 L 2.6875 0 L 1.65625 0 L 1.65625 -10.171875 L 2.546875 -10.171875 L 6.953125 -2.625 L 11.328125 -10.171875 Z M 12.21875 -10.171875 "/></g></g></g><g fill="#151515" fill-opacity="1"><g transform="translate(116.529324, 189.572433)"><g><path d="M 8.84375 -0.9375 L 8.84375 0 L 1.65625 0 L 1.65625 -10.171875 L 8.625 -10.171875 L 8.625 -9.234375 L 2.734375 -9.234375 L 2.734375 -5.625 L 7.984375 -5.625 L 7.984375 -4.703125 L 2.734375 -4.703125 L 2.734375 -0.9375 Z M 8.84375 -0.9375 "/></g></g></g><g fill="#151515" fill-opacity="1"><g transform="translate(130.877554, 189.572433)"><g><path d="M 10.15625 -10.171875 L 10.15625 0 L 9.265625 0 L 2.734375 -8.25 L 2.734375 0 L 1.65625 0 L 1.65625 -10.171875 L 2.546875 -10.171875 L 9.09375 -1.921875 L 9.09375 -10.171875 Z M 10.15625 -10.171875 "/></g></g></g><g fill="#151515" fill-opacity="1"><g transform="translate(147.316596, 189.572433)"><g/></g></g><g fill="#151515" fill-opacity="1"><g transform="translate(155.755388, 189.572433)"><g><path d="M 8.609375 0 L 6.28125 -3.265625 C 6.019531 -3.234375 5.75 -3.21875 5.46875 -3.21875 L 2.734375 -3.21875 L 2.734375 0 L 1.65625 0 L 1.65625 -10.171875 L 5.46875 -10.171875 C 6.757812 -10.171875 7.773438 -9.859375 8.515625 -9.234375 C 9.253906 -8.617188 9.625 -7.769531 9.625 -6.6875 C 9.625 -5.894531 9.421875 -5.222656 9.015625 -4.671875 C 8.609375 -4.117188 8.035156 -3.722656 7.296875 -3.484375 L 9.78125 0 Z M 5.4375 -4.140625 C 6.445312 -4.140625 7.21875 -4.363281 7.75 -4.8125 C 8.28125 -5.257812 8.546875 -5.882812 8.546875 -6.6875 C 8.546875 -7.507812 8.28125 -8.140625 7.75 -8.578125 C 7.21875 -9.015625 6.445312 -9.234375 5.4375 -9.234375 L 2.734375 -9.234375 L 2.734375 -4.140625 Z M 5.4375 -4.140625 "/></g></g></g><g fill="#151515" fill-opacity="1"><g transform="translate(170.887681, 189.572433)"><g><path d="M 8.03125 -2.71875 L 2.375 -2.71875 L 1.140625 0 L 0.03125 0 L 4.671875 -10.171875 L 5.734375 -10.171875 L 10.390625 0 L 9.25 0 Z M 7.640625 -3.59375 L 5.203125 -9.046875 L 2.765625 -3.59375 Z M 7.640625 -3.59375 "/></g></g></g><g fill="#151515" fill-opacity="1"><g transform="translate(185.932862, 189.572433)"><g><path d="M 8.0625 -5.25 C 8.726562 -5.101562 9.242188 -4.8125 9.609375 -4.375 C 9.972656 -3.945312 10.15625 -3.394531 10.15625 -2.71875 C 10.15625 -1.84375 9.832031 -1.171875 9.1875 -0.703125 C 8.539062 -0.234375 7.585938 0 6.328125 0 L 1.65625 0 L 1.65625 -10.171875 L 6.046875 -10.171875 C 7.179688 -10.171875 8.0625 -9.941406 8.6875 -9.484375 C 9.3125 -9.035156 9.625 -8.394531 9.625 -7.5625 C 9.625 -7 9.484375 -6.519531 9.203125 -6.125 C 8.929688 -5.726562 8.550781 -5.4375 8.0625 -5.25 Z M 2.734375 -9.28125 L 2.734375 -5.59375 L 5.96875 -5.59375 C 6.789062 -5.59375 7.425781 -5.75 7.875 -6.0625 C 8.320312 -6.375 8.546875 -6.832031 8.546875 -7.4375 C 8.546875 -8.039062 8.320312 -8.5 7.875 -8.8125 C 7.425781 -9.125 6.789062 -9.28125 5.96875 -9.28125 Z M 6.328125 -0.890625 C 7.234375 -0.890625 7.914062 -1.039062 8.375 -1.34375 C 8.84375 -1.65625 9.078125 -2.140625 9.078125 -2.796875 C 9.078125 -4.066406 8.160156 -4.703125 6.328125 -4.703125 L 2.734375 -4.703125 L 2.734375 -0.890625 Z M 6.328125 -0.890625 "/></g></g></g><g fill="#151515" fill-opacity="1"><g transform="translate(201.515251, 189.572433)"><g><path d="M 8.03125 -2.71875 L 2.375 -2.71875 L 1.140625 0 L 0.03125 0 L 4.671875 -10.171875 L 5.734375 -10.171875 L 10.390625 0 L 9.25 0 Z M 7.640625 -3.59375 L 5.203125 -9.046875 L 2.765625 -3.59375 Z M 7.640625 -3.59375 "/></g></g></g><g fill="#151515" fill-opacity="1"><g transform="translate(216.560431, 189.572433)"><g><path d="M 1.65625 -10.171875 L 5.796875 -10.171875 C 6.867188 -10.171875 7.816406 -9.953125 8.640625 -9.515625 C 9.460938 -9.085938 10.101562 -8.488281 10.5625 -7.71875 C 11.019531 -6.945312 11.25 -6.066406 11.25 -5.078125 C 11.25 -4.097656 11.019531 -3.222656 10.5625 -2.453125 C 10.101562 -1.679688 9.460938 -1.078125 8.640625 -0.640625 C 7.816406 -0.210938 6.867188 0 5.796875 0 L 1.65625 0 Z M 5.734375 -0.9375 C 6.628906 -0.9375 7.410156 -1.109375 8.078125 -1.453125 C 8.742188 -1.804688 9.257812 -2.296875 9.625 -2.921875 C 10 -3.546875 10.1875 -4.265625 10.1875 -5.078125 C 10.1875 -5.898438 10 -6.625 9.625 -7.25 C 9.257812 -7.875 8.742188 -8.359375 8.078125 -8.703125 C 7.410156 -9.054688 6.628906 -9.234375 5.734375 -9.234375 L 2.734375 -9.234375 L 2.734375 -0.9375 Z M 5.734375 -0.9375 "/></g></g></g><g fill="#151515" fill-opacity="1"><g transform="translate(233.188238, 189.572433)"><g><path d="M 9 -0.9375 L 9 0 L 0.65625 0 L 0.65625 -0.734375 L 7.390625 -9.234375 L 0.75 -9.234375 L 0.75 -10.171875 L 8.828125 -10.171875 L 8.828125 -9.4375 L 2.09375 -0.9375 Z M 9 -0.9375 "/></g></g></g><g fill="#151515" fill-opacity="1"><g transform="translate(247.275113, 189.572433)"><g><path d="M 10.15625 -10.171875 L 10.15625 0 L 9.09375 0 L 9.09375 -4.6875 L 2.734375 -4.6875 L 2.734375 0 L 1.65625 0 L 1.65625 -10.171875 L 2.734375 -10.171875 L 2.734375 -5.640625 L 9.09375 -5.640625 L 9.09375 -10.171875 Z M 10.15625 -10.171875 "/></g></g></g><g fill="#151515" fill-opacity="1"><g transform="translate(263.714161, 189.572433)"><g><path d="M 1.65625 -10.171875 L 2.734375 -10.171875 L 2.734375 0 L 1.65625 0 Z M 1.65625 -10.171875 "/></g></g></g><g fill="#151515" fill-opacity="1"><g transform="translate(272.733729, 189.572433)"><g><path d="M 5.140625 -3.515625 L 5.140625 0 L 4.078125 0 L 4.078125 -3.515625 L 0.015625 -10.171875 L 1.15625 -10.171875 L 4.65625 -4.46875 L 8.140625 -10.171875 L 9.21875 -10.171875 Z M 5.140625 -3.515625 "/></g></g></g><g fill="#151515" fill-opacity="1"><g transform="translate(286.588289, 189.572433)"><g><path d="M 4.46875 0.09375 C 3.707031 0.09375 2.976562 -0.0234375 2.28125 -0.265625 C 1.59375 -0.515625 1.0625 -0.835938 0.6875 -1.234375 L 1.109375 -2.0625 C 1.472656 -1.695312 1.957031 -1.398438 2.5625 -1.171875 C 3.175781 -0.941406 3.8125 -0.828125 4.46875 -0.828125 C 5.375 -0.828125 6.050781 -0.992188 6.5 -1.328125 C 6.957031 -1.660156 7.1875 -2.09375 7.1875 -2.625 C 7.1875 -3.03125 7.0625 -3.351562 6.8125 -3.59375 C 6.570312 -3.84375 6.269531 -4.03125 5.90625 -4.15625 C 5.550781 -4.289062 5.054688 -4.4375 4.421875 -4.59375 C 3.648438 -4.78125 3.035156 -4.960938 2.578125 -5.140625 C 2.128906 -5.328125 1.742188 -5.601562 1.421875 -5.96875 C 1.097656 -6.34375 0.9375 -6.84375 0.9375 -7.46875 C 0.9375 -7.976562 1.070312 -8.441406 1.34375 -8.859375 C 1.613281 -9.285156 2.023438 -9.625 2.578125 -9.875 C 3.140625 -10.132812 3.835938 -10.265625 4.671875 -10.265625 C 5.253906 -10.265625 5.820312 -10.179688 6.375 -10.015625 C 6.9375 -9.859375 7.421875 -9.640625 7.828125 -9.359375 L 7.46875 -8.5 C 7.039062 -8.78125 6.582031 -8.988281 6.09375 -9.125 C 5.613281 -9.269531 5.140625 -9.34375 4.671875 -9.34375 C 3.785156 -9.34375 3.113281 -9.171875 2.65625 -8.828125 C 2.207031 -8.484375 1.984375 -8.039062 1.984375 -7.5 C 1.984375 -7.09375 2.109375 -6.765625 2.359375 -6.515625 C 2.609375 -6.265625 2.914062 -6.070312 3.28125 -5.9375 C 3.65625 -5.8125 4.160156 -5.671875 4.796875 -5.515625 C 5.546875 -5.335938 6.148438 -5.15625 6.609375 -4.96875 C 7.066406 -4.789062 7.453125 -4.519531 7.765625 -4.15625 C 8.085938 -3.800781 8.25 -3.3125 8.25 -2.6875 C 8.25 -2.175781 8.109375 -1.707031 7.828125 -1.28125 C 7.554688 -0.863281 7.132812 -0.53125 6.5625 -0.28125 C 5.988281 -0.03125 5.289062 0.09375 4.46875 0.09375 Z M 4.46875 0.09375 "/></g></g></g><g fill="#151515" fill-opacity="1"><g transform="translate(300.152467, 189.572433)"><g><path d="M 4.8125 -4.78125 L 2.734375 -2.671875 L 2.734375 0 L 1.65625 0 L 1.65625 -10.171875 L 2.734375 -10.171875 L 2.734375 -4.03125 L 8.703125 -10.171875 L 9.9375 -10.171875 L 5.53125 -5.5625 L 10.25 0 L 8.96875 0 Z M 4.8125 -4.78125 "/></g></g></g><g fill="#151515" fill-opacity="1"><g transform="translate(315.110512, 189.572433)"><g><path d="M 1.65625 -10.171875 L 2.734375 -10.171875 L 2.734375 0 L 1.65625 0 Z M 1.65625 -10.171875 "/></g></g></g></svg>