<svg xmlns="http://www.w3.org/2000/svg" xmlns:xlink="http://www.w3.org/1999/xlink" width="500" zoomAndPan="magnify" viewBox="0 0 375 374.999991" height="500" preserveAspectRatio="xMidYMid meet" version="1.0"><defs><g/></defs><rect x="-37.5" width="450" fill="#ffffff" y="-37.499999" height="449.999989" fill-opacity="1"/><rect x="-37.5" width="450" fill="#ffffff" y="-37.499999" height="449.999989" fill-opacity="1"/><rect x="-37.5" width="450" fill="#ffffff" y="-37.499999" height="449.999989" fill-opacity="1"/><g fill="#000000" fill-opacity="1"><g transform="translate(61.418746, 199.499987)"><g><path d="M 5.878906 0 C 6.339844 0 6.675781 -0.335938 6.675781 -0.796875 L 6.675781 -0.882812 C 6.46875 -4.199219 6.382812 -7.390625 6.382812 -10.707031 L 6.382812 -12.640625 C 14.402344 -16.796875 17.929688 -21.25 17.929688 -24.648438 C 17.929688 -27.96875 14.65625 -30.191406 8.902344 -30.191406 L 8.1875 -30.191406 C 7.980469 -30.191406 7.726562 -30.191406 7.476562 -30.152344 C 7.515625 -30.359375 7.558594 -30.527344 7.558594 -30.824219 C 7.683594 -31.328125 7.265625 -31.746094 6.761719 -31.746094 C 6.300781 -31.746094 5.964844 -31.453125 5.921875 -30.992188 L 5.796875 -29.984375 C 4.578125 -29.816406 3.359375 -29.519531 2.058594 -29.144531 C 1.679688 -29.015625 1.46875 -28.765625 1.46875 -28.304688 C 1.46875 -28.21875 1.46875 -28.136719 1.511719 -28.09375 C 1.636719 -27.714844 1.933594 -27.503906 2.308594 -27.503906 C 2.4375 -27.503906 2.519531 -27.503906 2.5625 -27.546875 C 3.570312 -27.839844 4.578125 -28.09375 5.585938 -28.261719 C 5.082031 -23.433594 4.789062 -18.601562 4.703125 -13.691406 C 3.277344 -12.976562 1.765625 -12.304688 0.167969 -11.675781 C -0.210938 -11.546875 -0.378906 -11.253906 -0.378906 -10.875 C -0.378906 -10.75 -0.378906 -10.625 -0.335938 -10.582031 C -0.167969 -10.203125 0.0859375 -10.035156 0.460938 -10.035156 C 0.882812 -10.035156 4.199219 -11.589844 4.660156 -11.800781 C 4.660156 -8.105469 4.703125 -4.453125 4.996094 -0.757812 C 5.039062 -0.292969 5.375 0 5.835938 0 Z M 6.382812 -14.570312 C 6.507812 -19.234375 6.804688 -23.808594 7.308594 -28.472656 C 7.9375 -28.511719 8.484375 -28.554688 9.027344 -28.554688 C 13.773438 -28.554688 16.25 -26.917969 16.25 -24.523438 C 16.25 -21.835938 13.101562 -18.140625 6.382812 -14.570312 Z M 6.382812 -14.570312 "/></g></g></g><g fill="#000000" fill-opacity="1"><g transform="translate(78.759874, 199.499987)"><g><path d="M 3.820312 -5.585938 C 6.425781 -5.585938 9.28125 -10.078125 10.5 -12.304688 C 10.539062 -12.386719 10.582031 -12.515625 10.582031 -12.722656 C 10.582031 -13.058594 10.457031 -13.3125 10.164062 -13.480469 C 9.996094 -13.523438 9.867188 -13.5625 9.785156 -13.5625 C 9.449219 -13.5625 9.195312 -13.394531 9.027344 -13.101562 C 7.476562 -10.332031 5.125 -7.265625 3.863281 -7.265625 C 3.738281 -7.265625 3.652344 -7.308594 3.527344 -7.347656 C 2.980469 -7.683594 2.101562 -8.1875 2.101562 -12.050781 C 2.101562 -15.539062 2.8125 -21.039062 4.453125 -29.101562 C 4.535156 -29.648438 4.324219 -29.984375 3.78125 -30.109375 C 3.316406 -30.234375 2.941406 -29.898438 2.8125 -29.4375 C 1.804688 -24.355469 0.421875 -17.46875 0.421875 -12.429688 C 0.421875 -8.441406 1.261719 -5.585938 3.820312 -5.585938 Z M 3.820312 -5.585938 "/></g></g></g><g fill="#000000" fill-opacity="1"><g transform="translate(87.325468, 199.499987)"><g><path d="M -0.125 -5.964844 C 0.253906 -5.710938 0.671875 -5.585938 1.132812 -5.585938 C 2.6875 -5.585938 4.492188 -7.390625 5.460938 -8.945312 C 5.332031 -6.972656 6.257812 -5.585938 7.726562 -5.585938 C 9.40625 -5.585938 11.84375 -7.390625 14.53125 -12.304688 C 14.570312 -12.472656 14.613281 -12.597656 14.613281 -12.683594 C 14.613281 -13.019531 14.445312 -13.269531 14.152344 -13.4375 C 14.066406 -13.480469 13.941406 -13.523438 13.773438 -13.523438 C 13.4375 -13.523438 13.1875 -13.394531 13.019531 -13.101562 C 11.675781 -10.414062 9.195312 -7.308594 7.980469 -7.308594 C 7.515625 -7.308594 7.265625 -7.683594 7.265625 -8.820312 C 7.265625 -9.363281 7.308594 -10.035156 7.476562 -10.875 C 7.601562 -11.757812 7.769531 -12.640625 8.0625 -13.4375 C 8.273438 -14.066406 7.894531 -14.613281 7.265625 -14.613281 C 6.972656 -14.613281 6.71875 -14.445312 6.507812 -14.109375 C 5.5 -12.179688 3.863281 -8.988281 2.140625 -7.726562 C 1.765625 -7.433594 1.46875 -7.308594 1.175781 -7.308594 C 0.714844 -7.308594 0.503906 -7.644531 0.503906 -8.355469 C 0.503906 -10.539062 2.980469 -15.410156 7.476562 -15.410156 C 7.9375 -15.410156 8.316406 -15.789062 8.316406 -16.25 C 8.316406 -16.714844 7.9375 -17.089844 7.476562 -17.089844 C 2.226562 -17.089844 -1.132812 -11.757812 -1.132812 -8.355469 C -1.132812 -7.308594 -0.796875 -6.425781 -0.125 -5.964844 Z M -0.125 -5.964844 "/></g></g></g><g fill="#000000" fill-opacity="1"><g transform="translate(99.879933, 199.499987)"><g><path d="M 1.300781 -5.542969 C 1.765625 -5.542969 2.015625 -5.753906 2.101562 -6.171875 C 3.234375 -10.539062 5.667969 -15.117188 6.257812 -15.453125 C 6.550781 -14.78125 6.46875 -12.386719 6.636719 -7.644531 C 6.675781 -7.179688 6.972656 -6.84375 7.433594 -6.84375 C 7.894531 -6.804688 8.1875 -7.054688 8.316406 -7.515625 C 8.523438 -8.734375 9.574219 -12.304688 10.457031 -13.523438 C 10.792969 -12.347656 11.042969 -8.734375 13.816406 -8.273438 C 13.941406 -8.273438 14.066406 -8.230469 14.234375 -8.230469 C 16.25 -8.230469 18.183594 -10.539062 19.570312 -12.136719 C 19.695312 -12.261719 19.738281 -12.429688 19.738281 -12.640625 C 19.738281 -12.933594 19.609375 -13.144531 19.402344 -13.3125 C 19.273438 -13.4375 19.105469 -13.523438 18.898438 -13.523438 C 18.601562 -13.523438 18.394531 -13.394531 18.226562 -13.1875 C 15.875 -10.164062 14.613281 -9.785156 14.066406 -9.910156 C 12.050781 -10.246094 12.683594 -14.234375 11.296875 -15.160156 C 11.085938 -15.328125 10.835938 -15.410156 10.539062 -15.410156 C 10.414062 -15.410156 10.289062 -15.410156 10.246094 -15.371094 C 9.53125 -15.203125 8.820312 -14.320312 8.1875 -12.765625 C 8.0625 -15.285156 8.105469 -16.714844 6.761719 -17.050781 C 6.59375 -17.089844 6.425781 -17.132812 6.257812 -17.132812 C 5.710938 -17.132812 4.996094 -16.882812 4.367188 -15.746094 C 3.527344 -14.363281 2.773438 -12.890625 2.140625 -11.421875 L 2.140625 -16.417969 C 2.140625 -16.882812 1.765625 -17.257812 1.300781 -17.257812 C 0.839844 -17.257812 0.460938 -16.882812 0.460938 -16.417969 L 0.460938 -6.382812 C 0.460938 -5.921875 0.839844 -5.542969 1.300781 -5.542969 Z M 1.300781 -5.542969 "/></g></g></g><g fill="#000000" fill-opacity="1"><g transform="translate(117.556956, 199.499987)"><g><path d="M 4.410156 -5.585938 C 7.140625 -5.585938 10.5 -7.140625 13.648438 -12.304688 C 13.730469 -12.429688 13.773438 -12.554688 13.773438 -12.722656 C 13.773438 -13.101562 13.648438 -13.3125 13.355469 -13.4375 C 13.226562 -13.523438 13.058594 -13.5625 12.933594 -13.5625 C 12.640625 -13.5625 12.386719 -13.4375 12.21875 -13.1875 C 10.75 -10.707031 9.15625 -9.070312 7.476562 -8.105469 C 6.507812 -7.601562 5.375 -7.265625 4.242188 -7.265625 C 2.6875 -7.265625 1.34375 -7.9375 1.34375 -9.742188 C 1.34375 -9.953125 1.386719 -10.164062 1.429688 -10.457031 C 4.242188 -10.667969 7.558594 -12.722656 7.558594 -14.949219 C 7.558594 -16.167969 6.636719 -17.132812 5.292969 -17.132812 C 4.453125 -17.132812 3.445312 -16.753906 2.394531 -15.746094 C 0.757812 -14.195312 -0.292969 -11.800781 -0.292969 -9.742188 C -0.292969 -7.515625 1.007812 -5.585938 4.410156 -5.585938 Z M 2.015625 -12.261719 C 3.148438 -14.613281 4.535156 -15.453125 5.332031 -15.453125 C 5.628906 -15.453125 5.796875 -15.371094 5.835938 -15.160156 C 6.046875 -14.195312 4.074219 -12.597656 2.015625 -12.261719 Z M 2.015625 -12.261719 "/></g></g></g><g fill="#000000" fill-opacity="1"><g transform="translate(129.229677, 199.499987)"><g><path d="M 0.839844 -5.628906 C 1.21875 -5.628906 1.46875 -5.796875 1.597656 -6.171875 C 3.148438 -10.539062 4.996094 -15.117188 5.964844 -15.117188 C 6.132812 -15.117188 6.257812 -14.992188 6.382812 -14.699219 C 6.507812 -14.320312 6.59375 -13.816406 6.59375 -13.1875 C 6.59375 -11.632812 6.300781 -9.660156 8.105469 -8.523438 C 8.566406 -8.230469 9.070312 -8.0625 9.699219 -8.0625 C 11.925781 -8.0625 14.066406 -10.246094 15.328125 -12.304688 C 15.410156 -12.429688 15.453125 -12.554688 15.453125 -12.722656 C 15.453125 -13.058594 15.328125 -13.3125 15.035156 -13.4375 C 14.90625 -13.523438 14.738281 -13.5625 14.570312 -13.5625 C 14.277344 -13.5625 14.027344 -13.4375 13.898438 -13.144531 C 13.101562 -11.757812 11.253906 -9.742188 9.785156 -9.742188 C 9.492188 -9.742188 9.238281 -9.828125 9.027344 -9.953125 C 8.0625 -10.582031 8.273438 -11.84375 8.273438 -13.226562 C 8.273438 -13.941406 8.230469 -14.699219 7.9375 -15.371094 C 7.558594 -16.335938 6.761719 -16.839844 5.878906 -16.839844 C 4.117188 -16.839844 3.148438 -14.613281 2.058594 -11.96875 C 2.226562 -13.605469 2.351562 -14.992188 2.519531 -16.167969 C 2.644531 -16.628906 2.269531 -17.089844 1.804688 -17.132812 C 1.34375 -17.257812 0.925781 -16.882812 0.882812 -16.417969 C 0.421875 -13.1875 0.125 -9.195312 0 -6.507812 C -0.0429688 -6.046875 0.335938 -5.628906 0.839844 -5.628906 Z M 0.839844 -5.628906 "/></g></g></g><g fill="#000000" fill-opacity="1"><g transform="translate(142.62391, 199.499987)"><g/></g></g><g fill="#000000" fill-opacity="1"><g transform="translate(151.02155, 199.499987)"><g><path d="M 6.425781 0 C 6.886719 0 7.179688 -0.335938 7.179688 -0.796875 L 7.179688 -0.882812 C 6.972656 -4.367188 6.886719 -7.769531 6.886719 -11.253906 C 8.523438 -10.289062 9.070312 -9.660156 18.058594 -1.804688 C 18.183594 -1.679688 18.394531 -1.597656 18.644531 -1.597656 C 18.898438 -1.597656 19.105469 -1.679688 19.273438 -1.890625 C 19.402344 -2.101562 19.484375 -2.269531 19.484375 -2.4375 C 19.484375 -2.644531 19.402344 -2.855469 19.191406 -3.066406 C 10.289062 -10.960938 9.363281 -11.757812 7.390625 -12.890625 C 15.074219 -16.964844 18.476562 -21.289062 18.476562 -24.609375 C 18.476562 -27.96875 15.160156 -30.191406 9.40625 -30.191406 L 8.691406 -30.191406 C 8.484375 -30.191406 8.230469 -30.191406 8.019531 -30.152344 L 8.105469 -30.824219 C 8.148438 -31.328125 7.8125 -31.746094 7.308594 -31.746094 C 6.84375 -31.746094 6.550781 -31.453125 6.425781 -30.992188 L 6.300781 -29.984375 C 4.996094 -29.816406 3.820312 -29.519531 2.605469 -29.144531 C 2.226562 -29.015625 2.015625 -28.679688 2.015625 -28.34375 C 2.015625 -28.21875 2.015625 -28.136719 2.058594 -28.09375 C 2.140625 -27.714844 2.394531 -27.503906 2.855469 -27.503906 C 2.980469 -27.503906 3.066406 -27.503906 3.109375 -27.546875 C 4.074219 -27.839844 5.082031 -28.09375 6.132812 -28.261719 C 5.628906 -23.472656 5.332031 -18.644531 5.25 -13.816406 C 4.492188 -14.027344 3.738281 -14.109375 2.980469 -14.109375 C 0.589844 -14.109375 -1.132812 -13.019531 -1.597656 -11.96875 C -1.679688 -11.757812 -1.722656 -11.546875 -1.722656 -11.378906 C -1.722656 -10.582031 -1.09375 -9.867188 0.0429688 -9.867188 C 0.421875 -9.867188 0.839844 -9.910156 1.300781 -10.121094 C 2.6875 -10.667969 3.988281 -11.171875 5.207031 -11.800781 C 5.207031 -8.105469 5.25 -4.453125 5.542969 -0.757812 C 5.542969 -0.292969 5.878906 0 6.339844 0 Z M 6.929688 -14.570312 C 7.054688 -19.234375 7.347656 -23.808594 7.851562 -28.472656 C 8.105469 -28.511719 8.355469 -28.511719 8.609375 -28.511719 L 9.40625 -28.511719 C 12.765625 -28.511719 16.753906 -27.714844 16.753906 -24.480469 C 16.753906 -20.492188 10.457031 -16.417969 6.929688 -14.570312 Z M 0.0859375 -11.507812 C 0.378906 -11.800781 1.21875 -12.304688 2.519531 -12.429688 C 0.628906 -11.546875 0.292969 -11.507812 0.0859375 -11.507812 Z M 0.0859375 -11.507812 "/></g></g></g><g fill="#000000" fill-opacity="1"><g transform="translate(170.504073, 199.499987)"><g><path d="M -0.125 -5.964844 C 0.253906 -5.710938 0.671875 -5.585938 1.132812 -5.585938 C 2.6875 -5.585938 4.492188 -7.390625 5.460938 -8.945312 C 5.332031 -6.972656 6.257812 -5.585938 7.726562 -5.585938 C 9.40625 -5.585938 11.84375 -7.390625 14.53125 -12.304688 C 14.570312 -12.472656 14.613281 -12.597656 14.613281 -12.683594 C 14.613281 -13.019531 14.445312 -13.269531 14.152344 -13.4375 C 14.066406 -13.480469 13.941406 -13.523438 13.773438 -13.523438 C 13.4375 -13.523438 13.1875 -13.394531 13.019531 -13.101562 C 11.675781 -10.414062 9.195312 -7.308594 7.980469 -7.308594 C 7.515625 -7.308594 7.265625 -7.683594 7.265625 -8.820312 C 7.265625 -9.363281 7.308594 -10.035156 7.476562 -10.875 C 7.601562 -11.757812 7.769531 -12.640625 8.0625 -13.4375 C 8.273438 -14.066406 7.894531 -14.613281 7.265625 -14.613281 C 6.972656 -14.613281 6.71875 -14.445312 6.507812 -14.109375 C 5.5 -12.179688 3.863281 -8.988281 2.140625 -7.726562 C 1.765625 -7.433594 1.46875 -7.308594 1.175781 -7.308594 C 0.714844 -7.308594 0.503906 -7.644531 0.503906 -8.355469 C 0.503906 -10.539062 2.980469 -15.410156 7.476562 -15.410156 C 7.9375 -15.410156 8.316406 -15.789062 8.316406 -16.25 C 8.316406 -16.714844 7.9375 -17.089844 7.476562 -17.089844 C 2.226562 -17.089844 -1.132812 -11.757812 -1.132812 -8.355469 C -1.132812 -7.308594 -0.796875 -6.425781 -0.125 -5.964844 Z M -0.125 -5.964844 "/></g></g></g><g fill="#000000" fill-opacity="1"><g transform="translate(183.058539, 199.499987)"><g><path d="M 0.925781 -2.644531 C 1.386719 -2.644531 1.722656 -3.066406 1.722656 -3.527344 C 1.722656 -4.242188 1.679688 -4.996094 1.679688 -5.710938 C 1.679688 -6.761719 1.722656 -7.769531 1.765625 -8.820312 C 2.101562 -12.640625 6.300781 -15.496094 8.105469 -15.496094 C 8.398438 -15.496094 8.652344 -15.410156 8.777344 -15.242188 C 8.945312 -15.035156 9.027344 -14.738281 9.027344 -14.402344 C 9.027344 -13.691406 8.734375 -12.765625 8.566406 -12.261719 C 3.570312 -10.371094 1.847656 -7.9375 1.847656 -6.425781 C 1.847656 -5.460938 2.519531 -4.828125 3.527344 -4.828125 C 5.039062 -4.828125 7.558594 -6.382812 9.027344 -9.195312 C 9.363281 -9.828125 9.574219 -10.414062 9.867188 -10.960938 C 11.675781 -11.589844 13.3125 -11.882812 14.867188 -11.882812 C 15.328125 -11.882812 15.707031 -12.261719 15.707031 -12.722656 C 15.707031 -13.1875 15.328125 -13.5625 14.867188 -13.5625 C 13.480469 -13.5625 12.011719 -13.355469 10.5 -12.933594 C 10.625 -13.480469 10.707031 -13.941406 10.707031 -14.402344 C 10.707031 -16.210938 9.617188 -17.132812 8.148438 -17.132812 C 6.929688 -17.132812 5.417969 -16.546875 3.90625 -15.371094 C 5.125 -17.34375 6.132812 -19.441406 6.929688 -21.710938 C 7.894531 -24.398438 8.230469 -26.246094 8.230469 -27.589844 C 8.230469 -29.480469 7.476562 -30.191406 6.675781 -30.191406 C 6.132812 -30.191406 5.628906 -29.984375 5.25 -29.519531 C 4.03125 -28.21875 2.644531 -24.816406 1.636719 -20.617188 C 0.589844 -16.210938 0 -11.210938 0 -5.878906 L 0 -4.660156 C 0 -4.285156 0 -3.863281 0.0429688 -3.445312 C 0.0429688 -2.980469 0.421875 -2.644531 0.882812 -2.644531 Z M 2.476562 -16.292969 C 3.359375 -22.003906 5.25 -27.128906 6.507812 -28.386719 C 6.550781 -28.175781 6.59375 -27.925781 6.59375 -27.589844 C 6.59375 -25.363281 5.082031 -20.449219 2.476562 -16.292969 Z M 3.527344 -6.46875 C 3.277344 -6.71875 4.324219 -8.316406 7.558594 -9.996094 C 6.300781 -7.601562 4.285156 -6.59375 3.527344 -6.46875 Z M 3.527344 -6.46875 "/></g></g></g><g fill="#000000" fill-opacity="1"><g transform="translate(196.998621, 199.499987)"><g><path d="M -0.125 -5.964844 C 0.253906 -5.710938 0.671875 -5.585938 1.132812 -5.585938 C 2.6875 -5.585938 4.492188 -7.390625 5.460938 -8.945312 C 5.332031 -6.972656 6.257812 -5.585938 7.726562 -5.585938 C 9.40625 -5.585938 11.84375 -7.390625 14.53125 -12.304688 C 14.570312 -12.472656 14.613281 -12.597656 14.613281 -12.683594 C 14.613281 -13.019531 14.445312 -13.269531 14.152344 -13.4375 C 14.066406 -13.480469 13.941406 -13.523438 13.773438 -13.523438 C 13.4375 -13.523438 13.1875 -13.394531 13.019531 -13.101562 C 11.675781 -10.414062 9.195312 -7.308594 7.980469 -7.308594 C 7.515625 -7.308594 7.265625 -7.683594 7.265625 -8.820312 C 7.265625 -9.363281 7.308594 -10.035156 7.476562 -10.875 C 7.601562 -11.757812 7.769531 -12.640625 8.0625 -13.4375 C 8.273438 -14.066406 7.894531 -14.613281 7.265625 -14.613281 C 6.972656 -14.613281 6.71875 -14.445312 6.507812 -14.109375 C 5.5 -12.179688 3.863281 -8.988281 2.140625 -7.726562 C 1.765625 -7.433594 1.46875 -7.308594 1.175781 -7.308594 C 0.714844 -7.308594 0.503906 -7.644531 0.503906 -8.355469 C 0.503906 -10.539062 2.980469 -15.410156 7.476562 -15.410156 C 7.9375 -15.410156 8.316406 -15.789062 8.316406 -16.25 C 8.316406 -16.714844 7.9375 -17.089844 7.476562 -17.089844 C 2.226562 -17.089844 -1.132812 -11.757812 -1.132812 -8.355469 C -1.132812 -7.308594 -0.796875 -6.425781 -0.125 -5.964844 Z M -0.125 -5.964844 "/></g></g></g><g fill="#000000" fill-opacity="1"><g transform="translate(209.553086, 199.499987)"><g><path d="M 12.429688 0 C 12.890625 -0.0429688 13.1875 -0.378906 13.1875 -0.839844 L 13.1875 -0.925781 C 12.640625 -5.835938 12.429688 -12.011719 12.429688 -17.386719 L 12.429688 -19.90625 C 12.976562 -22.128906 13.859375 -26.035156 13.859375 -28.050781 C 13.859375 -28.890625 13.730469 -29.4375 13.480469 -29.730469 C 13.269531 -30.023438 12.933594 -30.191406 12.554688 -30.191406 C 12.261719 -30.191406 12.011719 -30.066406 11.84375 -29.855469 C 10.875 -28.765625 10.75 -21.835938 10.75 -20.113281 C 9.699219 -15.707031 8.1875 -11.507812 4.660156 -8.355469 C 3.820312 -7.601562 3.109375 -7.222656 2.476562 -7.222656 C 1.597656 -7.222656 1.132812 -8.0625 1.132812 -9.238281 C 1.132812 -11.800781 3.234375 -15.621094 7.769531 -15.496094 C 8.230469 -15.453125 8.609375 -15.832031 8.609375 -16.292969 C 8.652344 -16.753906 8.273438 -17.132812 7.8125 -17.175781 C 2.351562 -17.300781 -0.546875 -12.765625 -0.546875 -9.238281 C -0.546875 -7.222656 0.460938 -5.585938 2.519531 -5.585938 C 5.878906 -5.585938 9.449219 -11.210938 10.75 -14.402344 C 10.875 -9.363281 11.042969 -4.578125 11.507812 -0.757812 C 11.546875 -0.253906 11.84375 0 12.347656 0 Z M 12.429688 0 "/></g></g></g><g fill="#000000" fill-opacity="1"><g transform="translate(224.794796, 199.499987)"><g><path d="M -4.074219 11.085938 C -3.695312 11.714844 -2.773438 12.179688 -1.46875 12.179688 C -0.0859375 12.179688 1.679688 11.546875 3.359375 9.699219 C 6.046875 6.804688 8.316406 2.308594 8.316406 -1.597656 L 8.316406 -2.140625 C 8.316406 -2.308594 8.316406 -2.476562 8.273438 -2.644531 C 11.296875 -5.375 14.402344 -8.523438 16.921875 -12.347656 C 17.007812 -12.515625 17.050781 -12.683594 17.050781 -12.851562 C 17.050781 -13.144531 16.921875 -13.355469 16.671875 -13.523438 C 16.546875 -13.605469 16.378906 -13.648438 16.210938 -13.648438 C 15.914062 -13.648438 15.707031 -13.523438 15.539062 -13.269531 C 13.3125 -9.910156 10.539062 -7.011719 7.8125 -4.492188 C 7.140625 -5.964844 6.046875 -6.929688 4.492188 -7.347656 C 5.878906 -8.820312 6.929688 -10.5 7.558594 -12.472656 C 7.726562 -12.933594 7.769531 -13.355469 7.769531 -13.816406 C 7.769531 -15.328125 6.804688 -16.417969 5.332031 -16.417969 C 3.652344 -16.417969 1.34375 -14.992188 -0.839844 -11.085938 C -0.925781 -10.960938 -0.964844 -10.792969 -0.964844 -10.667969 C -0.964844 -10.332031 -0.839844 -10.078125 -0.546875 -9.953125 C -0.421875 -9.867188 -0.292969 -9.828125 -0.125 -9.828125 C 0.210938 -9.828125 0.460938 -9.953125 0.589844 -10.246094 C 2.394531 -13.394531 4.242188 -14.738281 5.292969 -14.738281 C 5.835938 -14.738281 6.089844 -14.445312 6.089844 -13.816406 C 6.089844 -13.605469 6.046875 -13.3125 5.964844 -12.976562 C 5.25 -10.75 3.863281 -8.777344 2.058594 -7.390625 C 1.847656 -7.222656 1.722656 -7.011719 1.722656 -6.71875 C 1.722656 -6.59375 1.722656 -6.507812 1.765625 -6.46875 C 1.890625 -6.003906 2.226562 -5.878906 2.6875 -5.878906 C 4.578125 -5.878906 5.921875 -5.082031 6.425781 -3.234375 L 2.941406 -0.253906 C -0.839844 2.980469 -4.703125 6.003906 -4.703125 9.070312 C -4.703125 9.742188 -4.492188 10.414062 -4.074219 11.085938 Z M -2.6875 10.164062 C -2.898438 9.785156 -3.023438 9.449219 -3.023438 9.070312 C -3.023438 6.84375 0.503906 3.988281 3.988281 1.050781 L 6.636719 -1.175781 C 6.425781 1.804688 4.828125 5.753906 2.140625 8.566406 C 0.671875 10.078125 -0.589844 10.5 -1.554688 10.5 C -2.101562 10.5 -2.476562 10.371094 -2.6875 10.164062 Z M -2.6875 10.164062 "/></g></g></g><g fill="#000000" fill-opacity="1"><g transform="translate(239.700599, 199.499987)"><g><path d="M 1.597656 -6.003906 C 3.066406 -8.945312 5.921875 -15.453125 7.558594 -15.453125 C 8.019531 -15.453125 8.316406 -14.992188 8.609375 -13.816406 C 9.574219 -9.28125 11.339844 -7.140625 13.523438 -7.140625 C 15.496094 -7.140625 17.804688 -8.902344 20.03125 -12.261719 C 20.113281 -12.386719 20.15625 -12.515625 20.15625 -12.683594 C 20.15625 -12.976562 20.03125 -13.226562 19.777344 -13.394531 C 19.652344 -13.480469 19.484375 -13.523438 19.316406 -13.523438 C 19.023438 -13.523438 18.769531 -13.480469 18.601562 -13.1875 C 17.007812 -10.835938 14.78125 -8.523438 13.144531 -8.859375 C 12.640625 -8.945312 12.136719 -9.324219 11.675781 -10.035156 C 9.910156 -12.808594 10.667969 -16.503906 8.019531 -17.050781 C 7.894531 -17.089844 7.726562 -17.089844 7.476562 -17.089844 C 5.164062 -17.089844 3.277344 -13.226562 1.933594 -10.457031 C 2.269531 -17.050781 2.476562 -24.480469 3.359375 -29.144531 C 3.484375 -29.605469 3.148438 -30.023438 2.6875 -30.152344 C 2.226562 -30.191406 1.847656 -29.898438 1.722656 -29.4375 C 0.714844 -23.601562 0.460938 -13.984375 0 -6.46875 C -0.0429688 -5.921875 0.421875 -5.585938 0.882812 -5.585938 C 1.175781 -5.585938 1.429688 -5.710938 1.597656 -6.003906 Z M 1.597656 -6.003906 "/></g></g></g><g fill="#000000" fill-opacity="1"><g transform="translate(257.797518, 199.499987)"><g><path d="M 1.050781 -5.878906 C 1.429688 -5.667969 1.804688 -5.542969 2.183594 -5.542969 C 4.789062 -5.542969 7.558594 -9.828125 8.902344 -12.304688 C 8.945312 -12.472656 8.988281 -12.597656 8.988281 -12.683594 C 8.988281 -12.976562 8.859375 -13.226562 8.566406 -13.4375 C 8.398438 -13.480469 8.273438 -13.523438 8.1875 -13.523438 C 7.851562 -13.523438 7.601562 -13.394531 7.390625 -13.101562 C 5.667969 -10.035156 3.484375 -7.265625 2.226562 -7.265625 C 2.101562 -7.265625 2.015625 -7.308594 1.890625 -7.347656 C 1.597656 -7.515625 1.46875 -7.9375 1.46875 -8.652344 C 1.46875 -10.792969 2.773438 -14.867188 3.109375 -15.957031 C 3.234375 -16.417969 2.980469 -16.882812 2.519531 -17.007812 C 2.058594 -17.132812 1.597656 -16.839844 1.46875 -16.378906 C 0.796875 -13.898438 -0.167969 -10.960938 -0.167969 -8.734375 C -0.167969 -7.433594 0.167969 -6.425781 1.050781 -5.878906 Z M 3.402344 -19.359375 C 3.820312 -19.359375 4.074219 -19.570312 4.199219 -19.945312 L 4.578125 -21.207031 C 4.746094 -21.835938 4.242188 -22.257812 3.738281 -22.257812 C 3.402344 -22.257812 3.066406 -22.089844 2.941406 -21.625 L 2.773438 -21.039062 L 2.605469 -20.410156 C 2.476562 -19.90625 2.773438 -19.359375 3.402344 -19.359375 Z M 3.402344 -19.359375 "/></g></g></g><g fill="#000000" fill-opacity="1"><g transform="translate(264.767564, 199.499987)"><g><path d="M 6.804688 8.652344 C 8.273438 5.5 9.070312 1.261719 9.53125 -2.183594 L 14.363281 -7.011719 C 16 -8.652344 17.425781 -10.414062 18.6875 -12.347656 C 18.769531 -12.472656 18.8125 -12.597656 18.8125 -12.765625 C 18.8125 -13.058594 18.6875 -13.3125 18.433594 -13.480469 C 18.308594 -13.5625 18.140625 -13.605469 17.929688 -13.605469 C 17.636719 -13.605469 17.386719 -13.480469 17.257812 -13.269531 C 15.242188 -10.121094 12.515625 -7.476562 9.828125 -4.828125 C 10.121094 -7.347656 10.164062 -9.828125 10.164062 -12.011719 C 10.164062 -13.691406 10.121094 -15.160156 9.996094 -16.378906 C 9.953125 -16.839844 9.617188 -17.132812 9.238281 -17.132812 C 8.777344 -17.175781 8.484375 -16.964844 8.355469 -16.503906 C 7.222656 -11.925781 4.746094 -8.398438 2.773438 -7.980469 C 1.890625 -7.8125 1.511719 -8.398438 1.511719 -9.53125 C 1.511719 -10.917969 2.101562 -13.019531 3.148438 -15.160156 C 3.191406 -15.242188 3.191406 -15.371094 3.191406 -15.496094 C 3.191406 -15.957031 2.898438 -16.378906 2.351562 -16.378906 C 2.015625 -16.378906 1.765625 -16.210938 1.636719 -15.914062 C 0.335938 -13.269531 -0.167969 -11.171875 -0.167969 -9.617188 C -0.167969 -7.390625 0.882812 -6.257812 2.351562 -6.257812 C 4.199219 -6.257812 6.675781 -8.0625 8.484375 -11.882812 C 8.484375 -9.027344 8.316406 -6.003906 7.9375 -2.980469 C 2.269531 2.6875 0.335938 7.265625 0.335938 9.953125 C 0.335938 11.757812 1.21875 12.722656 2.394531 12.722656 C 3.738281 12.722656 5.5 11.464844 6.804688 8.652344 Z M 2.183594 10.875 C 2.101562 10.707031 2.058594 10.457031 2.058594 10.121094 C 2.058594 9.324219 2.308594 8.148438 3.109375 6.425781 C 3.820312 4.914062 5.125 2.6875 7.515625 -0.0429688 C 5.710938 10.792969 2.394531 11.421875 2.183594 10.875 Z M 2.183594 10.875 "/></g></g></g><g fill="#000000" fill-opacity="1"><g transform="translate(281.478867, 199.499987)"><g><path d="M -1.132812 -6.257812 C -1.21875 -6.046875 -1.261719 -5.835938 -1.261719 -5.628906 C -1.261719 -4.578125 -0.335938 -3.949219 0.714844 -3.949219 C 2.101562 -3.949219 3.695312 -4.996094 3.695312 -7.8125 L 3.695312 -8.148438 C 3.695312 -8.273438 3.695312 -8.398438 3.652344 -8.523438 C 5.628906 -9.996094 7.601562 -11.210938 9.953125 -12.011719 C 10.332031 -12.136719 10.539062 -12.429688 10.539062 -12.808594 C 10.539062 -12.933594 10.539062 -13.058594 10.5 -13.101562 C 10.371094 -13.4375 10.078125 -13.648438 9.742188 -13.648438 C 9.617188 -13.648438 9.492188 -13.648438 9.449219 -13.605469 C 7.140625 -12.808594 5.207031 -11.675781 3.316406 -10.332031 C 2.980469 -11.675781 1.972656 -13.816406 1.972656 -15.285156 C 1.972656 -15.789062 2.101562 -16.167969 2.308594 -16.378906 C 2.4375 -16.503906 2.6875 -16.796875 3.148438 -16.796875 C 3.445312 -16.796875 3.78125 -16.714844 4.15625 -16.503906 C 4.324219 -16.460938 4.453125 -16.417969 4.535156 -16.417969 C 4.828125 -16.417969 5.082031 -16.546875 5.292969 -16.839844 C 5.375 -16.964844 5.417969 -17.089844 5.417969 -17.257812 C 5.417969 -17.59375 5.25 -17.847656 4.957031 -17.972656 C 4.367188 -18.308594 3.78125 -18.476562 3.148438 -18.476562 C 1.597656 -18.476562 0.292969 -17.300781 0.292969 -15.160156 C 0.292969 -14.867188 0.335938 -14.613281 0.378906 -14.277344 C 0.714844 -12.386719 1.511719 -11.128906 1.890625 -9.238281 C -0.253906 -7.601562 -0.839844 -7.054688 -1.132812 -6.257812 Z M 0.421875 -5.667969 C 0.546875 -5.964844 1.007812 -6.382812 1.972656 -7.179688 C 1.765625 -5.628906 0.714844 -5.460938 0.421875 -5.667969 Z M 0.421875 -5.667969 "/></g></g></g><g fill="#000000" fill-opacity="1"><g transform="translate(290.212402, 199.499987)"><g><path d="M 0.839844 11.378906 C 1.300781 11.378906 1.636719 11.042969 1.636719 10.582031 L 1.636719 6.675781 C 1.636719 2.519531 1.679688 -1.597656 1.804688 -5.796875 C 3.148438 -5.835938 4.492188 -6.675781 5.542969 -7.558594 C 7.433594 -5.921875 8.988281 -5.292969 10.457031 -5.292969 C 14.90625 -5.292969 17.089844 -11.714844 18.226562 -12.976562 C 18.351562 -13.1875 18.433594 -13.355469 18.433594 -13.523438 C 18.433594 -13.730469 18.351562 -13.941406 18.140625 -14.152344 C 17.972656 -14.320312 17.804688 -14.402344 17.59375 -14.402344 C 17.386719 -14.402344 17.175781 -14.320312 16.964844 -14.109375 C 15.371094 -12.386719 13.898438 -7.011719 10.414062 -7.011719 C 9.40625 -7.011719 8.230469 -7.515625 6.761719 -8.734375 C 7.894531 -10.121094 10.667969 -13.5625 10.667969 -16 C 10.667969 -16.753906 10.371094 -17.300781 9.785156 -17.679688 C 9.492188 -17.847656 9.15625 -17.929688 8.859375 -17.929688 C 6.507812 -17.929688 3.359375 -14.277344 2.015625 -12.472656 C 2.226562 -18.226562 2.519531 -24.019531 2.980469 -30.066406 C 3.023438 -30.527344 2.6875 -30.949219 2.226562 -30.949219 C 1.765625 -30.992188 1.34375 -30.65625 1.300781 -30.191406 C 0.796875 -23.179688 0.503906 -16.503906 0.210938 -9.910156 C -0.460938 -9.28125 -0.796875 -8.566406 -0.796875 -7.851562 C -0.796875 -7.140625 -0.503906 -6.550781 0.125 -6.171875 C 0 -1.847656 -0.0429688 2.394531 -0.0429688 6.636719 L -0.0429688 10.539062 C 0 11.003906 0.335938 11.378906 0.796875 11.378906 Z M 5.460938 -9.785156 C 4.660156 -10.289062 3.863281 -10.707031 2.898438 -10.835938 C 4.914062 -13.941406 8.273438 -16.546875 8.902344 -16.25 C 9.53125 -15.914062 7.476562 -11.882812 5.460938 -9.785156 Z M 1.847656 -8.230469 C 1.847656 -8.484375 1.847656 -8.734375 1.890625 -9.027344 C 2.101562 -9.113281 2.308594 -9.15625 2.5625 -9.15625 C 3.109375 -9.15625 3.695312 -8.902344 4.15625 -8.609375 C 3.191406 -7.8125 2.476562 -7.515625 1.847656 -7.476562 Z M 1.847656 -8.230469 "/></g></g></g><g fill="#000000" fill-opacity="1"><g transform="translate(306.50382, 199.499987)"><g><path d="M 1.050781 -5.878906 C 1.429688 -5.667969 1.804688 -5.542969 2.183594 -5.542969 C 4.789062 -5.542969 7.558594 -9.828125 8.902344 -12.304688 C 8.945312 -12.472656 8.988281 -12.597656 8.988281 -12.683594 C 8.988281 -12.976562 8.859375 -13.226562 8.566406 -13.4375 C 8.398438 -13.480469 8.273438 -13.523438 8.1875 -13.523438 C 7.851562 -13.523438 7.601562 -13.394531 7.390625 -13.101562 C 5.667969 -10.035156 3.484375 -7.265625 2.226562 -7.265625 C 2.101562 -7.265625 2.015625 -7.308594 1.890625 -7.347656 C 1.597656 -7.515625 1.46875 -7.9375 1.46875 -8.652344 C 1.46875 -10.792969 2.773438 -14.867188 3.109375 -15.957031 C 3.234375 -16.417969 2.980469 -16.882812 2.519531 -17.007812 C 2.058594 -17.132812 1.597656 -16.839844 1.46875 -16.378906 C 0.796875 -13.898438 -0.167969 -10.960938 -0.167969 -8.734375 C -0.167969 -7.433594 0.167969 -6.425781 1.050781 -5.878906 Z M 3.402344 -19.359375 C 3.820312 -19.359375 4.074219 -19.570312 4.199219 -19.945312 L 4.578125 -21.207031 C 4.746094 -21.835938 4.242188 -22.257812 3.738281 -22.257812 C 3.402344 -22.257812 3.066406 -22.089844 2.941406 -21.625 L 2.773438 -21.039062 L 2.605469 -20.410156 C 2.476562 -19.90625 2.773438 -19.359375 3.402344 -19.359375 Z M 3.402344 -19.359375 "/></g></g></g></svg>